<svg xmlns="http://www.w3.org/2000/svg" width="720" height="405" viewBox="0 0 720 405" role="img" aria-labelledby="title desc">
  <title id="title">Flutter CocoaPods to Swift Package Manager Migration</title>
  <desc id="desc">Blog thumbnail for a Flutter iOS migration article.</desc>
  <rect width="720" height="405" rx="28" fill="#0b1220"/>
  <path d="M0 302 C142 236 252 260 372 302 C500 348 590 318 720 244 L720 405 L0 405 Z" fill="#38bdf8" opacity="0.12"/>
  <circle cx="594" cy="84" r="150" fill="#0ea5e9" opacity="0.16"/>
  <g transform="translate(58 58)">
    <rect width="604" height="289" rx="20" fill="#111827" stroke="#1f3a4b"/>
    <text x="38" y="68" fill="#38bdf8" font-family="Inter, ui-sans-serif, system-ui, sans-serif" font-size="17" font-weight="800" letter-spacing="3">FLUTTER IOS MIGRATION</text>
    <text x="38" y="134" fill="#f8fafc" font-family="Inter, ui-sans-serif, system-ui, sans-serif" font-size="44" font-weight="850">CocoaPods</text>
    <path d="M42 174 H202" stroke="#38bdf8" stroke-width="10" stroke-linecap="round"/>
    <path d="M186 152 L214 174 L186 196" fill="none" stroke="#38bdf8" stroke-width="10" stroke-linecap="round" stroke-linejoin="round"/>
    <text x="238" y="190" fill="#f8fafc" font-family="Inter, ui-sans-serif, system-ui, sans-serif" font-size="44" font-weight="850">SwiftPM</text>
    <rect x="38" y="230" width="152" height="38" rx="19" fill="#0c4a6e"/>
    <text x="64" y="255" fill="#7dd3fc" font-family="Inter, ui-sans-serif, system-ui, sans-serif" font-size="17" font-weight="800">Flutter 3.44</text>
    <rect x="206" y="230" width="124" height="38" rx="19" fill="#14532d"/>
    <text x="232" y="255" fill="#86efac" font-family="Inter, ui-sans-serif, system-ui, sans-serif" font-size="17" font-weight="800">Stable</text>
  </g>
</svg>
